<svg id="visual" viewBox="0 0 900 600" width="900" height="600" xmlns="http://www.w3.org/2000/svg" xmlns:xlink="http://www.w3.org/1999/xlink" version="1.1"><rect x="0" y="0" width="900" height="600" fill="#001220"></rect><defs><linearGradient id="grad1_0" x1="33.3%" y1="0%" x2="100%" y2="100%"><stop offset="20%" stop-color="#001220" stop-opacity="1"></stop><stop offset="80%" stop-color="#001220" stop-opacity="1"></stop></linearGradient></defs><defs><linearGradient id="grad2_0" x1="0%" y1="0%" x2="66.7%" y2="100%"><stop offset="20%" stop-color="#001220" stop-opacity="1"></stop><stop offset="80%" stop-color="#001220" stop-opacity="1"></stop></linearGradient></defs><g transform="translate(900, 0)"><path d="M0 189.3C-20.6 176.8 -41.2 164.3 -65.1 157.1C-89 149.8 -116.2 147.9 -133.8 133.8C-151.5 119.8 -159.6 93.6 -167.2 69.3C-174.9 44.9 -182.1 22.5 -189.3 0L0 0Z" fill="#A8A89E"></path></g><g transform="translate(0, 600)"><path d="M0 -189.3C25.2 -187.1 50.4 -184.9 72.4 -174.9C94.5 -164.9 113.3 -147 128 -128C142.6 -109 153.1 -88.9 162.6 -67.4C172.1 -45.8 180.7 -22.9 189.3 0L0 0Z" fill="#A8A89E"></path></g></svg>